<?xml version="1.0" encoding="utf-8"?>
<!-- Generator: Adobe Illustrator 16.0.4, SVG Export Plug-In . SVG Version: 6.00 Build 0)  -->
<!DOCTYPE svg PUBLIC "-//W3C//DTD SVG 1.1//EN" "http://www.w3.org/Graphics/SVG/1.1/DTD/svg11.dtd">
<svg version="1.1" id="Layer_1" xmlns="http://www.w3.org/2000/svg" xmlns:xlink="http://www.w3.org/1999/xlink" x="0px" y="0px"
	 width="16px" height="16px" viewBox="0 0 16 16" style="enable-background:new 0 0 16 16;" xml:space="preserve">
<style type="text/css">
<![CDATA[
	.st0{clip-path:url(#SVGID_48_);enable-background:new    ;}
	.st1{clip-path:url(#SVGID_82_);fill:#90A4AE;}
	.st2{opacity:0.2;clip-path:url(#SVGID_264_);fill:#4DB6AC;}
	.st3{opacity:0.7;clip-path:url(#SVGID_120_);fill:#90A4AE;}
	.st4{clip-path:url(#SVGID_230_);enable-background:new    ;}
	.st5{clip-path:url(#SVGID_300_);fill:#CFD8DC;}
	.st6{clip-path:url(#SVGID_236_);fill:#4DB6AC;}
	.st7{opacity:0.3;clip-path:url(#SVGID_280_);fill:#4DB6AC;}
	.st8{fill-rule:evenodd;clip-rule:evenodd;fill:none;}
	.st9{fill:#E87979;}
	.st10{opacity:0.7;clip-path:url(#SVGID_174_);fill:#FFFFFF;}
	.st11{opacity:0.8;clip-path:url(#SVGID_128_);fill:#90A4AE;}
	.st12{clip-path:url(#SVGID_310_);fill:none;}
	.st13{opacity:0.65;clip-path:url(#SVGID_260_);fill:#4DB6AC;}
	.st14{opacity:0.9;clip-path:url(#SVGID_272_);fill:#4DB6AC;}
	.st15{clip-path:url(#SVGID_314_);fill:#FFFFFF;}
	.st16{clip-path:url(#SVGID_90_);enable-background:new    ;}
	.st17{clip-path:url(#SVGID_64_);enable-background:new    ;}
	.st18{clip-path:url(#SVGID_52_);enable-background:new    ;}
	.st19{opacity:0.85;clip-path:url(#SVGID_256_);fill:#4DB6AC;}
	.st20{opacity:0.45;clip-path:url(#SVGID_96_);fill:#90A4AE;}
	.st21{enable-background:new    ;}
	.st22{clip-path:url(#SVGID_40_);fill:#607D8B;}
	.st23{clip-path:url(#SVGID_304_);fill:#FFFFFF;}
	.st24{clip-path:url(#SVGID_24_);fill:none;}
	.st25{fill:#57B8A7;}
	.st26{fill-rule:evenodd;clip-rule:evenodd;fill:#4DB6AC;}
	.st27{opacity:0.5;clip-path:url(#SVGID_112_);fill:#90A4AE;}
	.st28{opacity:0.35;clip-path:url(#SVGID_288_);fill:#4DB6AC;}
	.st29{clip-path:url(#SVGID_292_);fill:#4DB6AC;}
	.st30{opacity:0.8;clip-path:url(#SVGID_182_);fill:#FFFFFF;}
	.st31{opacity:0.5;clip-path:url(#SVGID_166_);fill:#FFFFFF;}
	.st32{opacity:0.2;clip-path:url(#SVGID_108_);fill:#90A4AE;}
	.st33{clip-path:url(#SVGID_66_);fill-rule:evenodd;clip-rule:evenodd;fill:#4DB6AC;}
	.st34{clip-path:url(#SVGID_86_);fill:#FFFFFF;}
	.st35{clip-path:url(#SVGID_202_);fill:#FFFFFF;}
	.st36{clip-path:url(#SVGID_8_);}
	.st37{clip-path:url(#SVGID_198_);fill:#90A4AE;}
	.st38{opacity:0.6;clip-path:url(#SVGID_140_);fill:#90A4AE;}
	.st39{opacity:0.3;clip-path:url(#SVGID_124_);fill:#90A4AE;}
	.st40{clip-path:url(#SVGID_32_);fill:#607D8B;}
	.st41{clip-path:url(#SVGID_246_);enable-background:new    ;}
	.st42{opacity:0.45;clip-path:url(#SVGID_150_);fill:#FFFFFF;}
	.st43{clip-path:url(#SVGID_318_);fill:#FFFFFF;}
	.st44{opacity:0.6;clip-path:url(#SVGID_194_);fill:#FFFFFF;}
	.st45{opacity:0.3;clip-path:url(#SVGID_178_);fill:#FFFFFF;}
	.st46{opacity:0.7;clip-path:url(#SVGID_276_);fill:#4DB6AC;}
	.st47{opacity:0.65;clip-path:url(#SVGID_104_);fill:#90A4AE;}
	.st48{opacity:0.9;clip-path:url(#SVGID_116_);fill:#90A4AE;}
	.st49{clip-path:url(#SVGID_44_);fill:#607D8B;}
	.st50{fill:none;}
	.st51{opacity:0.65;clip-path:url(#SVGID_158_);fill:#FFFFFF;}
	.st52{clip-path:url(#SVGID_56_);enable-background:new    ;}
	.st53{clip-path:url(#SVGID_20_);enable-background:new    ;}
	.st54{fill-rule:evenodd;clip-rule:evenodd;fill:#90A4AE;}
	.st55{fill:#CFD8DC;}
	.st56{opacity:0.2;clip-path:url(#SVGID_162_);fill:#FFFFFF;}
	.st57{clip-path:url(#SVGID_136_);fill:#90A4AE;}
	.st58{clip-path:url(#SVGID_102_);}
	.st59{clip-path:url(#SVGID_106_);}
	.st60{clip-path:url(#SVGID_110_);}
	.st61{clip-path:url(#SVGID_114_);}
	.st62{clip-path:url(#SVGID_118_);}
	.st63{clip-path:url(#SVGID_122_);}
	.st64{clip-path:url(#SVGID_126_);}
	.st65{clip-path:url(#SVGID_130_);}
	.st66{clip-path:url(#SVGID_134_);}
	.st67{clip-path:url(#SVGID_138_);}
	.st68{clip-path:url(#SVGID_142_);}
	.st69{clip-path:url(#SVGID_146_);}
	.st70{clip-path:url(#SVGID_148_);}
	.st71{clip-path:url(#SVGID_152_);}
	.st72{clip-path:url(#SVGID_156_);}
	.st73{clip-path:url(#SVGID_160_);}
	.st74{clip-path:url(#SVGID_164_);}
	.st75{clip-path:url(#SVGID_168_);}
	.st76{clip-path:url(#SVGID_172_);}
	.st77{clip-path:url(#SVGID_176_);}
	.st78{clip-path:url(#SVGID_180_);}
	.st79{clip-path:url(#SVGID_184_);}
	.st80{clip-path:url(#SVGID_188_);}
	.st81{clip-path:url(#SVGID_192_);}
	.st82{clip-path:url(#SVGID_196_);}
	.st83{clip-path:url(#SVGID_200_);}
	.st84{clip-path:url(#SVGID_204_);}
	.st85{clip-path:url(#SVGID_206_);}
	.st86{clip-path:url(#SVGID_208_);}
	.st87{clip-path:url(#SVGID_210_);}
	.st88{clip-path:url(#SVGID_212_);}
	.st89{clip-path:url(#SVGID_214_);}
	.st90{clip-path:url(#SVGID_216_);}
	.st91{clip-path:url(#SVGID_218_);}
	.st92{clip-path:url(#SVGID_220_);}
	.st93{clip-path:url(#SVGID_222_);}
	.st94{clip-path:url(#SVGID_224_);}
	.st95{clip-path:url(#SVGID_226_);}
	.st96{clip-path:url(#SVGID_228_);}
	.st97{clip-path:url(#SVGID_232_);}
	.st98{clip-path:url(#SVGID_234_);}
	.st99{clip-path:url(#SVGID_238_);}
	.st100{clip-path:url(#SVGID_242_);}
	.st101{clip-path:url(#SVGID_244_);}
	.st102{clip-path:url(#SVGID_248_);}
	.st103{clip-path:url(#SVGID_250_);}
	.st104{clip-path:url(#SVGID_254_);}
	.st105{clip-path:url(#SVGID_258_);}
	.st106{clip-path:url(#SVGID_262_);}
	.st107{clip-path:url(#SVGID_266_);}
	.st108{clip-path:url(#SVGID_270_);}
	.st109{clip-path:url(#SVGID_274_);}
	.st110{clip-path:url(#SVGID_278_);}
	.st111{clip-path:url(#SVGID_282_);}
	.st112{clip-path:url(#SVGID_286_);}
	.st113{clip-path:url(#SVGID_290_);}
	.st114{clip-path:url(#SVGID_294_);}
	.st115{clip-path:url(#SVGID_298_);}
	.st116{clip-path:url(#SVGID_302_);}
	.st117{clip-path:url(#SVGID_312_);}
	.st118{clip-path:url(#SVGID_316_);}
	.st119{clip-path:url(#SVGID_52_);fill:none;}
	.st120{fill-rule:evenodd;clip-rule:evenodd;fill:#607D8B;}
	.st121{opacity:0.85;clip-path:url(#SVGID_100_);fill:#90A4AE;}
	.st122{fill-rule:evenodd;clip-rule:evenodd;fill:#FFFFFF;}
	.st123{clip-path:url(#SVGID_36_);fill:#607D8B;}
	.st124{opacity:0.9;clip-path:url(#SVGID_170_);fill:#FFFFFF;}
	.st125{opacity:0.8;clip-path:url(#SVGID_284_);fill:#4DB6AC;}
	.st126{opacity:0.5;clip-path:url(#SVGID_268_);fill:#4DB6AC;}
	.st127{opacity:0.85;clip-path:url(#SVGID_154_);fill:#FFFFFF;}
	.st128{clip-path:url(#SVGID_18_);fill:#57B8A7;}
	.st129{clip-path:url(#SVGID_64_);fill:none;}
	.st130{fill-rule:evenodd;clip-rule:evenodd;fill:#CFD8DC;}
	.st131{clip-path:url(#SVGID_10_);}
	.st132{clip-path:url(#SVGID_12_);}
	.st133{clip-path:url(#SVGID_14_);}
	.st134{clip-path:url(#SVGID_16_);}
	.st135{clip-path:url(#SVGID_26_);}
	.st136{clip-path:url(#SVGID_30_);}
	.st137{clip-path:url(#SVGID_34_);}
	.st138{clip-path:url(#SVGID_38_);}
	.st139{clip-path:url(#SVGID_42_);}
	.st140{clip-path:url(#SVGID_46_);}
	.st141{clip-path:url(#SVGID_54_);}
	.st142{clip-path:url(#SVGID_58_);}
	.st143{clip-path:url(#SVGID_60_);}
	.st144{clip-path:url(#SVGID_62_);}
	.st145{clip-path:url(#SVGID_68_);}
	.st146{clip-path:url(#SVGID_70_);}
	.st147{clip-path:url(#SVGID_72_);}
	.st148{clip-path:url(#SVGID_74_);}
	.st149{clip-path:url(#SVGID_76_);}
	.st150{clip-path:url(#SVGID_78_);}
	.st151{clip-path:url(#SVGID_80_);}
	.st152{clip-path:url(#SVGID_84_);}
	.st153{clip-path:url(#SVGID_88_);}
	.st154{clip-path:url(#SVGID_92_);}
	.st155{clip-path:url(#SVGID_94_);}
	.st156{clip-path:url(#SVGID_98_);}
	.st157{clip-path:url(#SVGID_310_);enable-background:new    ;}
	.st158{clip-path:url(#SVGID_240_);enable-background:new    ;}
	.st159{clip-path:url(#SVGID_144_);enable-background:new    ;}
	.st160{opacity:0.45;clip-path:url(#SVGID_252_);fill:#4DB6AC;}
	.st161{opacity:0.35;clip-path:url(#SVGID_132_);fill:#90A4AE;}
	.st162{opacity:0.6;clip-path:url(#SVGID_296_);fill:#4DB6AC;}
	.st163{fill:#79B6E8;}
	.st164{clip-path:url(#SVGID_4_);enable-background:new    ;}
	.st165{opacity:0.35;clip-path:url(#SVGID_186_);fill:#FFFFFF;}
	.st166{clip-path:url(#SVGID_190_);fill:#FFFFFF;}
	.st167{clip-path:url(#SVGID_28_);fill:#607D8B;}
]]>
</style>
<g>
	<g>
		<defs>
			<rect id="SVGID_87_" x="1" y="1" width="14" height="14"/>
		</defs>
		<clipPath id="SVGID_2_">
			<use xlink:href="#SVGID_87_"  style="overflow:visible;"/>
		</clipPath>
		<g style="clip-path:url(#SVGID_2_);">
			<defs>
				<rect id="SVGID_89_" width="16" height="16"/>
			</defs>
			<clipPath id="SVGID_4_">
				<use xlink:href="#SVGID_89_"  style="overflow:visible;"/>
			</clipPath>
			<g class="st164">
				<g>
					<defs>
						<rect id="SVGID_91_" x="1" y="1" width="14" height="14"/>
					</defs>
					<clipPath id="SVGID_6_">
						<use xlink:href="#SVGID_91_"  style="overflow:visible;"/>
					</clipPath>
					<g style="clip-path:url(#SVGID_6_);">
						<defs>
							<path id="SVGID_93_" d="M2.2,5.5C1.8,5.4,1.7,4.9,1.9,4.6s0.6-0.4,0.9-0.2l1.8,1C5,5.6,5.1,6,4.9,6.3C4.7,6.6,4.3,6.7,4,6.6
								L2.2,5.5z"/>
						</defs>
						<clipPath id="SVGID_8_">
							<use xlink:href="#SVGID_93_"  style="overflow:visible;"/>
						</clipPath>
						<g class="st36">
							<defs>
								<rect id="SVGID_95_" x="1" y="1" width="14" height="14"/>
							</defs>
							<clipPath id="SVGID_10_">
								<use xlink:href="#SVGID_95_"  style="overflow:visible;"/>
							</clipPath>
							<rect x="-3.2" y="-0.7" style="opacity:0.45;clip-path:url(#SVGID_10_);fill:#90A4AE;" width="13.2" height="12.4"/>
						</g>
					</g>
					<g style="clip-path:url(#SVGID_6_);">
						<defs>
							<path id="SVGID_97_" d="M11.1,10.6c-0.3-0.2-0.4-0.6-0.3-0.9s0.6-0.4,0.9-0.2l1.8,1c0.3,0.2,0.4,0.6,0.3,0.9
								s-0.6,0.4-0.9,0.2L11.1,10.6z"/>
						</defs>
						<clipPath id="SVGID_12_">
							<use xlink:href="#SVGID_97_"  style="overflow:visible;"/>
						</clipPath>
						<g class="st132">
							<defs>
								<rect id="SVGID_99_" x="1" y="1" width="14" height="14"/>
							</defs>
							<clipPath id="SVGID_14_">
								<use xlink:href="#SVGID_99_"  style="overflow:visible;"/>
							</clipPath>
							<rect x="5.8" y="4.4" style="opacity:0.85;clip-path:url(#SVGID_14_);fill:#90A4AE;" width="13.2" height="12.4"/>
						</g>
					</g>
					<g style="clip-path:url(#SVGID_6_);">
						<defs>
							<path id="SVGID_101_" d="M10.4,2.4c0.2-0.3,0.6-0.4,0.9-0.2s0.4,0.6,0.3,0.9l-1,1.8c-0.2,0.3-0.6,0.4-0.9,0.2
								S9.2,4.5,9.4,4.1L10.4,2.4z"/>
						</defs>
						<clipPath id="SVGID_16_">
							<use xlink:href="#SVGID_101_"  style="overflow:visible;"/>
						</clipPath>
						<g class="st134">
							<defs>
								<rect id="SVGID_103_" x="1" y="1" width="14" height="14"/>
							</defs>
							<clipPath id="SVGID_18_">
								<use xlink:href="#SVGID_103_"  style="overflow:visible;"/>
							</clipPath>
							<rect x="4.3" y="-3" style="opacity:0.65;clip-path:url(#SVGID_18_);fill:#90A4AE;" width="12.4" height="13.1"/>
						</g>
					</g>
					<g style="clip-path:url(#SVGID_6_);">
						<defs>
							<path id="SVGID_105_" d="M5.2,11.2c0.2-0.3,0.6-0.4,0.9-0.2c0.3,0.2,0.4,0.6,0.3,0.9l-1,1.8c-0.2,0.3-0.6,0.4-0.9,0.2
								c-0.3-0.2-0.4-0.6-0.3-0.9L5.2,11.2z"/>
						</defs>
						<clipPath id="SVGID_20_">
							<use xlink:href="#SVGID_105_"  style="overflow:visible;"/>
						</clipPath>
						<g style="clip-path:url(#SVGID_20_);">
							<defs>
								<rect id="SVGID_107_" x="1" y="1" width="14" height="14"/>
							</defs>
							<clipPath id="SVGID_22_">
								<use xlink:href="#SVGID_107_"  style="overflow:visible;"/>
							</clipPath>
							<rect x="-0.9" y="5.8" style="opacity:0.2;clip-path:url(#SVGID_22_);fill:#90A4AE;" width="12.4" height="13.1"/>
						</g>
					</g>
					<g style="clip-path:url(#SVGID_6_);">
						<defs>
							<path id="SVGID_109_" d="M4.2,3.1C4,2.7,4.1,2.3,4.4,2.1s0.8-0.1,0.9,0.2l1,1.8c0.2,0.3,0.1,0.7-0.3,0.9
								C5.8,5.3,5.4,5.1,5.2,4.8L4.2,3.1z"/>
						</defs>
						<clipPath id="SVGID_24_">
							<use xlink:href="#SVGID_109_"  style="overflow:visible;"/>
						</clipPath>
						<g style="clip-path:url(#SVGID_24_);">
							<defs>
								<rect id="SVGID_111_" x="1" y="1" width="14" height="14"/>
							</defs>
							<clipPath id="SVGID_26_">
								<use xlink:href="#SVGID_111_"  style="overflow:visible;"/>
							</clipPath>
							<rect x="-0.9" y="-3" style="opacity:0.5;clip-path:url(#SVGID_26_);fill:#90A4AE;" width="12.4" height="13.1"/>
						</g>
					</g>
					<g style="clip-path:url(#SVGID_6_);">
						<defs>
							<path id="SVGID_113_" d="M9.4,11.9c-0.2-0.3-0.1-0.7,0.3-0.9c0.3-0.2,0.8-0.1,0.9,0.2l1,1.8c0.2,0.3,0.1,0.7-0.3,0.9
								c-0.3,0.2-0.8,0.1-0.9-0.2L9.4,11.9z"/>
						</defs>
						<clipPath id="SVGID_28_">
							<use xlink:href="#SVGID_113_"  style="overflow:visible;"/>
						</clipPath>
						<g style="clip-path:url(#SVGID_28_);">
							<defs>
								<rect id="SVGID_115_" x="1" y="1" width="14" height="14"/>
							</defs>
							<clipPath id="SVGID_30_">
								<use xlink:href="#SVGID_115_"  style="overflow:visible;"/>
							</clipPath>
							<rect x="4.3" y="5.8" style="opacity:0.9;clip-path:url(#SVGID_30_);fill:#90A4AE;" width="12.4" height="13.1"/>
						</g>
					</g>
					<g style="clip-path:url(#SVGID_6_);">
						<defs>
							<path id="SVGID_117_" d="M12.9,4.4c0.3-0.2,0.8-0.1,0.9,0.2c0.2,0.3,0.1,0.7-0.3,0.9l-1.8,1c-0.3,0.2-0.8,0.1-0.9-0.2
								c-0.2-0.3-0.1-0.7,0.3-0.9L12.9,4.4z"/>
						</defs>
						<clipPath id="SVGID_32_">
							<use xlink:href="#SVGID_117_"  style="overflow:visible;"/>
						</clipPath>
						<g style="clip-path:url(#SVGID_32_);">
							<defs>
								<rect id="SVGID_119_" x="1" y="1" width="14" height="14"/>
							</defs>
							<clipPath id="SVGID_34_">
								<use xlink:href="#SVGID_119_"  style="overflow:visible;"/>
							</clipPath>
							<rect x="5.8" y="-0.7" style="opacity:0.7;clip-path:url(#SVGID_34_);fill:#90A4AE;" width="13.2" height="12.4"/>
						</g>
					</g>
					<g style="clip-path:url(#SVGID_6_);">
						<defs>
							<path id="SVGID_121_" d="M4,9.4c0.3-0.2,0.8-0.1,0.9,0.2C5.1,10,5,10.4,4.7,10.6l-1.8,1c-0.3,0.2-0.8,0.1-0.9-0.2
								c-0.2-0.3-0.1-0.7,0.3-0.9L4,9.4z"/>
						</defs>
						<clipPath id="SVGID_36_">
							<use xlink:href="#SVGID_121_"  style="overflow:visible;"/>
						</clipPath>
						<g style="clip-path:url(#SVGID_36_);">
							<defs>
								<rect id="SVGID_123_" x="1" y="1" width="14" height="14"/>
							</defs>
							<clipPath id="SVGID_38_">
								<use xlink:href="#SVGID_123_"  style="overflow:visible;"/>
							</clipPath>
							<rect x="-3.2" y="4.4" style="opacity:0.3;clip-path:url(#SVGID_38_);fill:#90A4AE;" width="13.2" height="12.4"/>
						</g>
					</g>
					<g style="clip-path:url(#SVGID_6_);">
						<defs>
							<path id="SVGID_125_" d="M14.1,7.3c0.4,0,0.7,0.3,0.7,0.7s-0.3,0.7-0.7,0.7H12c-0.4,0-0.7-0.3-0.7-0.7s0.3-0.7,0.7-0.7H14.1z
								"/>
						</defs>
						<clipPath id="SVGID_40_">
							<use xlink:href="#SVGID_125_"  style="overflow:visible;"/>
						</clipPath>
						<g style="clip-path:url(#SVGID_40_);">
							<defs>
								<rect id="SVGID_127_" x="1" y="1" width="14" height="14"/>
							</defs>
							<clipPath id="SVGID_42_">
								<use xlink:href="#SVGID_127_"  style="overflow:visible;"/>
							</clipPath>
							<rect x="6.3" y="2.3" style="opacity:0.8;clip-path:url(#SVGID_42_);fill:#90A4AE;" width="13.4" height="11.4"/>
						</g>
					</g>
					<g style="clip-path:url(#SVGID_6_);">
						<defs>
							<path id="SVGID_129_" d="M3.8,7.3c0.4,0,0.7,0.3,0.7,0.7S4.1,8.7,3.8,8.7H1.7C1.3,8.7,1,8.4,1,8s0.3-0.7,0.7-0.7H3.8z"/>
						</defs>
						<clipPath id="SVGID_44_">
							<use xlink:href="#SVGID_129_"  style="overflow:visible;"/>
						</clipPath>
						<g style="clip-path:url(#SVGID_44_);">
							<defs>
								<rect id="SVGID_131_" x="1" y="1" width="14" height="14"/>
							</defs>
							<clipPath id="SVGID_46_">
								<use xlink:href="#SVGID_131_"  style="overflow:visible;"/>
							</clipPath>
							<rect x="-4" y="2.3" style="opacity:0.35;clip-path:url(#SVGID_46_);fill:#90A4AE;" width="13.4" height="11.4"/>
						</g>
					</g>
					<g style="clip-path:url(#SVGID_6_);">
						<defs>
							<path id="SVGID_133_" d="M8.6,14.1c0,0.4-0.3,0.7-0.7,0.7c-0.4,0-0.7-0.3-0.7-0.7v-2c0-0.4,0.3-0.7,0.7-0.7
								c0.4,0,0.7,0.3,0.7,0.7V14.1z"/>
						</defs>
						<clipPath id="SVGID_48_">
							<use xlink:href="#SVGID_133_"  style="overflow:visible;"/>
						</clipPath>
						<g style="clip-path:url(#SVGID_48_);">
							<defs>
								<rect id="SVGID_135_" x="1" y="1" width="14" height="14"/>
							</defs>
							<clipPath id="SVGID_50_">
								<use xlink:href="#SVGID_135_"  style="overflow:visible;"/>
							</clipPath>
							<rect x="2.2" y="6.4" style="clip-path:url(#SVGID_50_);fill:#90A4AE;" width="11.4" height="13.4"/>
						</g>
					</g>
					<g style="clip-path:url(#SVGID_6_);">
						<defs>
							<path id="SVGID_137_" d="M8.6,3.9c0,0.4-0.3,0.7-0.7,0.7c-0.4,0-0.7-0.3-0.7-0.7v-2c0-0.4,0.3-0.7,0.7-0.7
								c0.4,0,0.7,0.3,0.7,0.7V3.9z"/>
						</defs>
						<clipPath id="SVGID_52_">
							<use xlink:href="#SVGID_137_"  style="overflow:visible;"/>
						</clipPath>
						<g style="clip-path:url(#SVGID_52_);">
							<defs>
								<rect id="SVGID_139_" x="1" y="1" width="14" height="14"/>
							</defs>
							<clipPath id="SVGID_54_">
								<use xlink:href="#SVGID_139_"  style="overflow:visible;"/>
							</clipPath>
							<rect x="2.2" y="-3.8" style="opacity:0.6;clip-path:url(#SVGID_54_);fill:#90A4AE;" width="11.4" height="13.4"/>
						</g>
					</g>
				</g>
			</g>
		</g>
	</g>
</g>
<g>
	<g>
		<defs>
			<rect id="SVGID_141_" x="1" y="20" width="14" height="14"/>
		</defs>
		<clipPath id="SVGID_56_">
			<use xlink:href="#SVGID_141_"  style="overflow:visible;"/>
		</clipPath>
		<g style="clip-path:url(#SVGID_56_);">
			<defs>
				<rect id="SVGID_143_" y="19" width="16" height="16"/>
			</defs>
			<clipPath id="SVGID_58_">
				<use xlink:href="#SVGID_143_"  style="overflow:visible;"/>
			</clipPath>
			<g style="clip-path:url(#SVGID_58_);enable-background:new    ;">
				<g>
					<defs>
						<rect id="SVGID_145_" x="1" y="20" width="14" height="14"/>
					</defs>
					<clipPath id="SVGID_60_">
						<use xlink:href="#SVGID_145_"  style="overflow:visible;"/>
					</clipPath>
					<g class="st143">
						<defs>
							<path id="SVGID_191_" d="M8.6,22.9c0,0.4-0.3,0.7-0.7,0.7c-0.4,0-0.7-0.3-0.7-0.7v-2c0-0.4,0.3-0.7,0.7-0.7
								c0.4,0,0.7,0.3,0.7,0.7V22.9z"/>
						</defs>
						<clipPath id="SVGID_62_">
							<use xlink:href="#SVGID_191_"  style="overflow:visible;"/>
						</clipPath>
						<g class="st144">
							<defs>
								<rect id="SVGID_193_" x="1" y="20" width="14" height="14"/>
							</defs>
							<clipPath id="SVGID_64_">
								<use xlink:href="#SVGID_193_"  style="overflow:visible;"/>
							</clipPath>
							<rect x="2.2" y="15.2" style="opacity:0.6;clip-path:url(#SVGID_64_);fill:#FFFFFF;" width="11.4" height="13.4"/>
						</g>
					</g>
				</g>
			</g>
		</g>
	</g>
</g>
</svg>
